<svg xmlns="http://www.w3.org/2000/svg">
  <!-- Tabler Icons 3.44.0, MIT licensed. See THIRD_PARTY_NOTICES.md. -->
  <symbol id="ti-grip-vertical" viewBox="0 0 24 24" fill="none" stroke="currentColor" stroke-width="2" stroke-linecap="round" stroke-linejoin="round">
    <path d="M8 5a1 1 0 1 0 2 0a1 1 0 1 0 -2 0"/><path d="M8 12a1 1 0 1 0 2 0a1 1 0 1 0 -2 0"/><path d="M8 19a1 1 0 1 0 2 0a1 1 0 1 0 -2 0"/><path d="M14 5a1 1 0 1 0 2 0a1 1 0 1 0 -2 0"/><path d="M14 12a1 1 0 1 0 2 0a1 1 0 1 0 -2 0"/><path d="M14 19a1 1 0 1 0 2 0a1 1 0 1 0 -2 0"/>
  </symbol>
  <symbol id="ti-maximize" viewBox="0 0 24 24" fill="none" stroke="currentColor" stroke-width="2" stroke-linecap="round" stroke-linejoin="round">
    <path d="M4 8v-2a2 2 0 0 1 2 -2h2"/><path d="M4 16v2a2 2 0 0 0 2 2h2"/><path d="M16 4h2a2 2 0 0 1 2 2v2"/><path d="M16 20h2a2 2 0 0 0 2 -2v-2"/>
  </symbol>
  <symbol id="ti-layout-dashboard" viewBox="0 0 24 24" fill="none" stroke="currentColor" stroke-width="2" stroke-linecap="round" stroke-linejoin="round">
    <path d="M5 4h4a1 1 0 0 1 1 1v6a1 1 0 0 1 -1 1h-4a1 1 0 0 1 -1 -1v-6a1 1 0 0 1 1 -1"/><path d="M5 16h4a1 1 0 0 1 1 1v2a1 1 0 0 1 -1 1h-4a1 1 0 0 1 -1 -1v-2a1 1 0 0 1 1 -1"/><path d="M15 12h4a1 1 0 0 1 1 1v6a1 1 0 0 1 -1 1h-4a1 1 0 0 1 -1 -1v-6a1 1 0 0 1 1 -1"/><path d="M15 4h4a1 1 0 0 1 1 1v2a1 1 0 0 1 -1 1h-4a1 1 0 0 1 -1 -1v-2a1 1 0 0 1 1 -1"/>
  </symbol>
  <symbol id="ti-layout-grid" viewBox="0 0 24 24" fill="none" stroke="currentColor" stroke-width="2" stroke-linecap="round" stroke-linejoin="round">
    <path d="M4 5a1 1 0 0 1 1 -1h4a1 1 0 0 1 1 1v4a1 1 0 0 1 -1 1h-4a1 1 0 0 1 -1 -1v-4"/><path d="M14 5a1 1 0 0 1 1 -1h4a1 1 0 0 1 1 1v4a1 1 0 0 1 -1 1h-4a1 1 0 0 1 -1 -1v-4"/><path d="M4 15a1 1 0 0 1 1 -1h4a1 1 0 0 1 1 1v4a1 1 0 0 1 -1 1h-4a1 1 0 0 1 -1 -1v-4"/><path d="M14 15a1 1 0 0 1 1 -1h4a1 1 0 0 1 1 1v4a1 1 0 0 1 -1 1h-4a1 1 0 0 1 -1 -1v-4"/>
  </symbol>
  <symbol id="ti-dots-vertical" viewBox="0 0 24 24" fill="none" stroke="currentColor" stroke-width="2" stroke-linecap="round" stroke-linejoin="round">
    <path d="M11 12a1 1 0 1 0 2 0a1 1 0 1 0 -2 0"/><path d="M11 19a1 1 0 1 0 2 0a1 1 0 1 0 -2 0"/><path d="M11 5a1 1 0 1 0 2 0a1 1 0 1 0 -2 0"/>
  </symbol>
  <symbol id="ti-external-link" viewBox="0 0 24 24" fill="none" stroke="currentColor" stroke-width="2" stroke-linecap="round" stroke-linejoin="round">
    <path d="M12 6h-6a2 2 0 0 0 -2 2v10a2 2 0 0 0 2 2h10a2 2 0 0 0 2 -2v-6"/><path d="M11 13l9 -9"/><path d="M15 4h5v5"/>
  </symbol>
  <symbol id="ti-player-pause" viewBox="0 0 24 24" fill="currentColor">
    <path d="M9 4h-2a2 2 0 0 0 -2 2v12a2 2 0 0 0 2 2h2a2 2 0 0 0 2 -2v-12a2 2 0 0 0 -2 -2z"/><path d="M17 4h-2a2 2 0 0 0 -2 2v12a2 2 0 0 0 2 2h2a2 2 0 0 0 2 -2v-12a2 2 0 0 0 -2 -2z"/>
  </symbol>
  <symbol id="ti-player-play" viewBox="0 0 24 24" fill="currentColor"><path d="M6 4v16a1 1 0 0 0 1.524 .852l13 -8a1 1 0 0 0 0 -1.704l-13 -8a1 1 0 0 0 -1.524 .852z"/></symbol>
  <symbol id="ti-player-skip-forward" viewBox="0 0 24 24" fill="currentColor"><path d="M3 5v14a1 1 0 0 0 1.504 .864l12 -7a1 1 0 0 0 0 -1.728l-12 -7a1 1 0 0 0 -1.504 .864z"/><path d="M20 4a1 1 0 0 1 .993 .883l.007 .117v14a1 1 0 0 1 -1.993 .117l-.007 -.117v-14a1 1 0 0 1 1 -1z"/></symbol>
  <symbol id="ti-player-track-next" viewBox="0 0 24 24" fill="currentColor"><path d="M2 5v14c0 .86 1.012 1.318 1.659 .753l8 -7a1 1 0 0 0 0 -1.506l-8 -7c-.647 -.565 -1.659 -.106 -1.659 .753z"/><path d="M13 5v14c0 .86 1.012 1.318 1.659 .753l8 -7a1 1 0 0 0 0 -1.506l-8 -7c-.647 -.565 -1.659 -.106 -1.659 .753z"/></symbol>
  <symbol id="ti-activity-heartbeat" viewBox="0 0 24 24" fill="none" stroke="currentColor" stroke-width="2" stroke-linecap="round" stroke-linejoin="round"><path d="M3 12h4.5l1.5 -6l4 12l2 -9l1.5 3h4.5"/></symbol>
  <symbol id="ti-flag-3" viewBox="0 0 24 24" fill="none" stroke="currentColor" stroke-width="2" stroke-linecap="round" stroke-linejoin="round"><path d="M5 14h14l-4.5 -4.5l4.5 -4.5h-14v16"/></symbol>
  <symbol id="ti-refresh" viewBox="0 0 24 24" fill="none" stroke="currentColor" stroke-width="2" stroke-linecap="round" stroke-linejoin="round"><path d="M20 11a8.1 8.1 0 0 0 -15.5 -2m-.5 -4v4h4"/><path d="M4 13a8.1 8.1 0 0 0 15.5 2m.5 4v-4h-4"/></symbol>
  <symbol id="ti-check" viewBox="0 0 24 24" fill="none" stroke="currentColor" stroke-width="2" stroke-linecap="round" stroke-linejoin="round"><path d="M5 12l5 5l10 -10"/></symbol>
  <symbol id="ti-brain" viewBox="0 0 24 24" fill="none" stroke="currentColor" stroke-width="2" stroke-linecap="round" stroke-linejoin="round"><path d="M15.5 13a3.5 3.5 0 0 0 -3.5 3.5v1a3.5 3.5 0 0 0 7 0v-1.8"/><path d="M8.5 13a3.5 3.5 0 0 1 3.5 3.5v1a3.5 3.5 0 0 1 -7 0v-1.8"/><path d="M17.5 16a3.5 3.5 0 0 0 0 -7h-.5"/><path d="M19 9.3v-2.8a3.5 3.5 0 0 0 -7 0"/><path d="M6.5 16a3.5 3.5 0 0 1 0 -7h.5"/><path d="M5 9.3v-2.8a3.5 3.5 0 0 1 7 0v10"/></symbol>
  <symbol id="ti-hand-grab" viewBox="0 0 24 24" fill="none" stroke="currentColor" stroke-width="2" stroke-linecap="round" stroke-linejoin="round"><path d="M8 11v-3.5a1.5 1.5 0 0 1 3 0v2.5"/><path d="M11 9.5v-3a1.5 1.5 0 0 1 3 0v3.5"/><path d="M14 7.5a1.5 1.5 0 0 1 3 0v2.5"/><path d="M17 9.5a1.5 1.5 0 0 1 3 0v4.5a6 6 0 0 1 -6 6h-1.792a6 6 0 0 1 -5.012 -2.7l-.196 -.3c-.312 -.479 -1.407 -2.388 -3.286 -5.728a1.5 1.5 0 0 1 .536 -2.022a1.867 1.867 0 0 1 2.28 .28l1.47 1.47"/></symbol>
  <symbol id="ti-device-desktop-share" viewBox="0 0 24 24" fill="none" stroke="currentColor" stroke-width="2" stroke-linecap="round" stroke-linejoin="round"><path d="M12.5 16h-8.5a1 1 0 0 1 -1 -1v-10a1 1 0 0 1 1 -1h16a1 1 0 0 1 1 1v8"/><path d="M7 20h5.5"/><path d="M9 16v4"/><path d="M16 22l5 -5"/><path d="M21 21.5v-4.5h-4.5"/></symbol>
  <symbol id="ti-search" viewBox="0 0 24 24" fill="none" stroke="currentColor" stroke-width="2" stroke-linecap="round" stroke-linejoin="round"><path d="M3 10a7 7 0 1 0 14 0a7 7 0 1 0 -14 0"/><path d="M21 21l-6 -6"/></symbol>
  <symbol id="ti-power" viewBox="0 0 24 24" fill="none" stroke="currentColor" stroke-width="2" stroke-linecap="round" stroke-linejoin="round"><path d="M7 6a7.75 7.75 0 1 0 10 0"/><path d="M12 4v8"/></symbol>
  <symbol id="ti-zoom-out" viewBox="0 0 24 24" fill="none" stroke="currentColor" stroke-width="2" stroke-linecap="round" stroke-linejoin="round"><path d="M3 10a7 7 0 1 0 14 0a7 7 0 1 0 -14 0"/><path d="M7 10h6"/><path d="M21 21l-6 -6"/></symbol>
  <symbol id="ti-zoom-in" viewBox="0 0 24 24" fill="none" stroke="currentColor" stroke-width="2" stroke-linecap="round" stroke-linejoin="round"><path d="M3 10a7 7 0 1 0 14 0a7 7 0 1 0 -14 0"/><path d="M7 10h6"/><path d="M10 7v6"/><path d="M21 21l-6 -6"/></symbol>
  <symbol id="ti-eye-off" viewBox="0 0 24 24" fill="none" stroke="currentColor" stroke-width="2" stroke-linecap="round" stroke-linejoin="round"><path d="M10.585 10.587a2 2 0 0 0 2.829 2.828"/><path d="M16.681 16.673a8.717 8.717 0 0 1 -4.681 1.327c-3.6 0 -6.6 -2 -9 -6c1.272 -2.12 2.712 -3.678 4.32 -4.674m2.86 -1.146a9.055 9.055 0 0 1 1.82 -.18c3.6 0 6.6 2 9 6c-.666 1.11 -1.379 2.067 -2.138 2.87"/><path d="M3 3l18 18"/></symbol>
  <symbol id="ti-restore" viewBox="0 0 24 24" fill="none" stroke="currentColor" stroke-width="2" stroke-linecap="round" stroke-linejoin="round"><path d="M3.06 13a9 9 0 1 0 .49 -4.087"/><path d="M3 4.001v5h5"/><path d="M11 12a1 1 0 1 0 2 0a1 1 0 1 0 -2 0"/></symbol>
  <symbol id="ti-device-floppy" viewBox="0 0 24 24" fill="none" stroke="currentColor" stroke-width="2" stroke-linecap="round" stroke-linejoin="round"><path d="M6 4h10l4 4v10a2 2 0 0 1 -2 2h-12a2 2 0 0 1 -2 -2v-12a2 2 0 0 1 2 -2"/><path d="M10 14a2 2 0 1 0 4 0a2 2 0 1 0 -4 0"/><path d="M14 4v4h-6v-4"/></symbol>
</svg>
